<mxfile host="app.diagrams.net" agent="Mozilla/5.0 (Windows NT 10.0; Win64; x64) AppleWebKit/537.36 (KHTML, like Gecko) Chrome/127.0.0.0 Safari/537.36" version="24.7.7">
  <diagram name="Page-1" id="koHiOuEMZEp7WqL1-jX1">
    <mxGraphModel dx="2788" dy="987" grid="1" gridSize="10" guides="1" tooltips="1" connect="1" arrows="1" fold="1" page="1" pageScale="1" pageWidth="850" pageHeight="1100" math="0" shadow="0">
      <root>
        <mxCell id="0" />
        <mxCell id="1" parent="0" />
        <mxCell id="-n0_h4fopmZt9PzkOisp-10" value="" style="rounded=0;whiteSpace=wrap;html=1;labelBackgroundColor=none;" vertex="1" parent="1">
          <mxGeometry x="235" y="900" width="565" height="160" as="geometry" />
        </mxCell>
        <mxCell id="-n0_h4fopmZt9PzkOisp-3" value="Deparamento" style="rounded=0;whiteSpace=wrap;html=1;" vertex="1" parent="1">
          <mxGeometry x="270" y="980" width="120" height="60" as="geometry" />
        </mxCell>
        <mxCell id="-n0_h4fopmZt9PzkOisp-4" value="" style="endArrow=none;html=1;rounded=0;exitX=1;exitY=0.5;exitDx=0;exitDy=0;entryX=0;entryY=0.5;entryDx=0;entryDy=0;" edge="1" parent="1" source="-n0_h4fopmZt9PzkOisp-3" target="-n0_h4fopmZt9PzkOisp-5">
          <mxGeometry width="50" height="50" relative="1" as="geometry">
            <mxPoint x="470" y="1020" as="sourcePoint" />
            <mxPoint x="520" y="1010" as="targetPoint" />
          </mxGeometry>
        </mxCell>
        <mxCell id="-n0_h4fopmZt9PzkOisp-5" value="&lt;font style=&quot;font-size: 9px;&quot;&gt;tiene&lt;/font&gt;" style="rhombus;whiteSpace=wrap;html=1;" vertex="1" parent="1">
          <mxGeometry x="480" y="985" width="50" height="50" as="geometry" />
        </mxCell>
        <mxCell id="-n0_h4fopmZt9PzkOisp-6" value="" style="endArrow=none;html=1;rounded=0;exitX=1;exitY=0.5;exitDx=0;exitDy=0;entryX=0;entryY=0.5;entryDx=0;entryDy=0;" edge="1" parent="1" source="-n0_h4fopmZt9PzkOisp-5" target="-n0_h4fopmZt9PzkOisp-7">
          <mxGeometry width="50" height="50" relative="1" as="geometry">
            <mxPoint x="580" y="990" as="sourcePoint" />
            <mxPoint x="620" y="1010" as="targetPoint" />
          </mxGeometry>
        </mxCell>
        <mxCell id="-n0_h4fopmZt9PzkOisp-7" value="Empleado" style="rounded=0;whiteSpace=wrap;html=1;" vertex="1" parent="1">
          <mxGeometry x="630" y="980" width="120" height="60" as="geometry" />
        </mxCell>
        <mxCell id="-n0_h4fopmZt9PzkOisp-8" value="1,N" style="text;html=1;align=center;verticalAlign=middle;resizable=0;points=[];autosize=1;strokeColor=none;fillColor=none;" vertex="1" parent="1">
          <mxGeometry x="592.5" y="985" width="40" height="30" as="geometry" />
        </mxCell>
        <mxCell id="-n0_h4fopmZt9PzkOisp-9" value="0,N" style="text;html=1;align=center;verticalAlign=middle;resizable=0;points=[];autosize=1;strokeColor=none;fillColor=none;" vertex="1" parent="1">
          <mxGeometry x="390" y="980" width="40" height="30" as="geometry" />
        </mxCell>
        <mxCell id="-n0_h4fopmZt9PzkOisp-11" value="" style="endArrow=none;html=1;rounded=0;entryX=0.477;entryY=1;entryDx=0;entryDy=0;exitX=0;exitY=0.5;exitDx=0;exitDy=0;entryPerimeter=0;" edge="1" parent="1" source="-n0_h4fopmZt9PzkOisp-12" target="-n0_h4fopmZt9PzkOisp-10">
          <mxGeometry width="50" height="50" relative="1" as="geometry">
            <mxPoint x="505" y="1130" as="sourcePoint" />
            <mxPoint x="550" y="1090" as="targetPoint" />
          </mxGeometry>
        </mxCell>
        <mxCell id="-n0_h4fopmZt9PzkOisp-12" value="&lt;font style=&quot;font-size: 9px;&quot;&gt;Realiza&lt;/font&gt;" style="rhombus;whiteSpace=wrap;html=1;direction=south;" vertex="1" parent="1">
          <mxGeometry x="480" y="1130" width="50" height="50" as="geometry" />
        </mxCell>
        <mxCell id="-n0_h4fopmZt9PzkOisp-13" value="" style="endArrow=none;html=1;rounded=0;entryX=1;entryY=0.5;entryDx=0;entryDy=0;exitX=0.5;exitY=0;exitDx=0;exitDy=0;" edge="1" parent="1" source="-n0_h4fopmZt9PzkOisp-14" target="-n0_h4fopmZt9PzkOisp-12">
          <mxGeometry width="50" height="50" relative="1" as="geometry">
            <mxPoint x="505" y="1250" as="sourcePoint" />
            <mxPoint x="490" y="1250" as="targetPoint" />
          </mxGeometry>
        </mxCell>
        <mxCell id="-n0_h4fopmZt9PzkOisp-14" value="Turnos" style="rounded=0;whiteSpace=wrap;html=1;" vertex="1" parent="1">
          <mxGeometry x="445" y="1260" width="120" height="60" as="geometry" />
        </mxCell>
        <mxCell id="-n0_h4fopmZt9PzkOisp-16" value="" style="ellipse;whiteSpace=wrap;html=1;aspect=fixed;fillColor=#000000;rotation=-30;" vertex="1" parent="1">
          <mxGeometry x="255" y="940" width="20" height="20" as="geometry" />
        </mxCell>
        <mxCell id="-n0_h4fopmZt9PzkOisp-17" value="" style="endArrow=none;html=1;rounded=0;entryX=0.5;entryY=1;entryDx=0;entryDy=0;" edge="1" target="-n0_h4fopmZt9PzkOisp-16" parent="1">
          <mxGeometry width="50" height="50" relative="1" as="geometry">
            <mxPoint x="280" y="981" as="sourcePoint" />
            <mxPoint x="270" y="935" as="targetPoint" />
          </mxGeometry>
        </mxCell>
        <mxCell id="-n0_h4fopmZt9PzkOisp-20" value="" style="ellipse;whiteSpace=wrap;html=1;aspect=fixed;" vertex="1" parent="1">
          <mxGeometry x="320" y="940" width="20" height="20" as="geometry" />
        </mxCell>
        <mxCell id="-n0_h4fopmZt9PzkOisp-21" value="" style="endArrow=none;html=1;rounded=0;entryX=0.5;entryY=1;entryDx=0;entryDy=0;exitX=0.5;exitY=0;exitDx=0;exitDy=0;" edge="1" target="-n0_h4fopmZt9PzkOisp-20" parent="1" source="-n0_h4fopmZt9PzkOisp-3">
          <mxGeometry width="50" height="50" relative="1" as="geometry">
            <mxPoint x="310" y="980" as="sourcePoint" />
            <mxPoint x="310" y="930" as="targetPoint" />
          </mxGeometry>
        </mxCell>
        <mxCell id="-n0_h4fopmZt9PzkOisp-24" value="Nombre" style="text;html=1;align=center;verticalAlign=middle;resizable=0;points=[];autosize=1;strokeColor=none;fillColor=none;" vertex="1" parent="1">
          <mxGeometry x="230" y="910" width="70" height="30" as="geometry" />
        </mxCell>
        <mxCell id="-n0_h4fopmZt9PzkOisp-25" value="Produccion" style="text;html=1;align=center;verticalAlign=middle;resizable=0;points=[];autosize=1;strokeColor=none;fillColor=none;" vertex="1" parent="1">
          <mxGeometry x="290" y="910" width="80" height="30" as="geometry" />
        </mxCell>
        <mxCell id="-n0_h4fopmZt9PzkOisp-32" value="" style="ellipse;whiteSpace=wrap;html=1;aspect=fixed;fillColor=#000000;rotation=-30;" vertex="1" parent="1">
          <mxGeometry x="610" y="940" width="20" height="20" as="geometry" />
        </mxCell>
        <mxCell id="-n0_h4fopmZt9PzkOisp-33" value="" style="endArrow=none;html=1;rounded=0;entryX=0.5;entryY=1;entryDx=0;entryDy=0;exitX=0.077;exitY=-0.008;exitDx=0;exitDy=0;exitPerimeter=0;" edge="1" target="-n0_h4fopmZt9PzkOisp-32" parent="1" source="-n0_h4fopmZt9PzkOisp-7">
          <mxGeometry width="50" height="50" relative="1" as="geometry">
            <mxPoint x="645" y="976" as="sourcePoint" />
            <mxPoint x="640" y="931" as="targetPoint" />
          </mxGeometry>
        </mxCell>
        <mxCell id="-n0_h4fopmZt9PzkOisp-35" value="Nombre" style="text;html=1;align=center;verticalAlign=middle;resizable=0;points=[];autosize=1;strokeColor=none;fillColor=none;" vertex="1" parent="1">
          <mxGeometry x="625" y="910" width="70" height="30" as="geometry" />
        </mxCell>
        <mxCell id="-n0_h4fopmZt9PzkOisp-36" value="" style="ellipse;whiteSpace=wrap;html=1;aspect=fixed;" vertex="1" parent="1">
          <mxGeometry x="650" y="940" width="20" height="20" as="geometry" />
        </mxCell>
        <mxCell id="-n0_h4fopmZt9PzkOisp-37" value="" style="endArrow=none;html=1;rounded=0;entryX=0.5;entryY=1;entryDx=0;entryDy=0;exitX=0.5;exitY=0;exitDx=0;exitDy=0;" edge="1" parent="1" target="-n0_h4fopmZt9PzkOisp-36">
          <mxGeometry width="50" height="50" relative="1" as="geometry">
            <mxPoint x="660" y="980" as="sourcePoint" />
            <mxPoint x="640" y="930" as="targetPoint" />
          </mxGeometry>
        </mxCell>
        <mxCell id="-n0_h4fopmZt9PzkOisp-38" value="Dni" style="text;html=1;align=center;verticalAlign=middle;whiteSpace=wrap;rounded=0;" vertex="1" parent="1">
          <mxGeometry x="570" y="920" width="60" height="30" as="geometry" />
        </mxCell>
        <mxCell id="-n0_h4fopmZt9PzkOisp-39" value="" style="ellipse;whiteSpace=wrap;html=1;aspect=fixed;" vertex="1" parent="1">
          <mxGeometry x="705" y="940" width="20" height="20" as="geometry" />
        </mxCell>
        <mxCell id="-n0_h4fopmZt9PzkOisp-40" value="" style="endArrow=none;html=1;rounded=0;entryX=0.5;entryY=1;entryDx=0;entryDy=0;exitX=0.25;exitY=0;exitDx=0;exitDy=0;" edge="1" target="-n0_h4fopmZt9PzkOisp-39" parent="1">
          <mxGeometry width="50" height="50" relative="1" as="geometry">
            <mxPoint x="715" y="980" as="sourcePoint" />
            <mxPoint x="715" y="930" as="targetPoint" />
          </mxGeometry>
        </mxCell>
        <mxCell id="-n0_h4fopmZt9PzkOisp-41" value="Apellido" style="text;html=1;align=center;verticalAlign=middle;resizable=0;points=[];autosize=1;strokeColor=none;fillColor=none;" vertex="1" parent="1">
          <mxGeometry x="680" y="910" width="70" height="30" as="geometry" />
        </mxCell>
        <mxCell id="-n0_h4fopmZt9PzkOisp-42" value="" style="ellipse;whiteSpace=wrap;html=1;aspect=fixed;rotation=30;" vertex="1" parent="1">
          <mxGeometry x="760" y="940" width="20" height="20" as="geometry" />
        </mxCell>
        <mxCell id="-n0_h4fopmZt9PzkOisp-43" value="" style="endArrow=none;html=1;rounded=0;entryX=0.5;entryY=1;entryDx=0;entryDy=0;exitX=1;exitY=0;exitDx=0;exitDy=0;" edge="1" target="-n0_h4fopmZt9PzkOisp-42" parent="1" source="-n0_h4fopmZt9PzkOisp-7">
          <mxGeometry width="50" height="50" relative="1" as="geometry">
            <mxPoint x="770" y="985" as="sourcePoint" />
            <mxPoint x="770" y="935" as="targetPoint" />
          </mxGeometry>
        </mxCell>
        <mxCell id="-n0_h4fopmZt9PzkOisp-44" value="Legajo" style="text;html=1;align=center;verticalAlign=middle;resizable=0;points=[];autosize=1;strokeColor=none;fillColor=none;" vertex="1" parent="1">
          <mxGeometry x="740" y="910" width="60" height="30" as="geometry" />
        </mxCell>
        <mxCell id="-n0_h4fopmZt9PzkOisp-45" value="" style="ellipse;whiteSpace=wrap;html=1;aspect=fixed;" vertex="1" parent="1">
          <mxGeometry x="592.5" y="1250" width="20" height="20" as="geometry" />
        </mxCell>
        <mxCell id="-n0_h4fopmZt9PzkOisp-46" value="" style="endArrow=none;html=1;rounded=0;entryX=0;entryY=0.5;entryDx=0;entryDy=0;exitX=1;exitY=0;exitDx=0;exitDy=0;" edge="1" target="-n0_h4fopmZt9PzkOisp-45" parent="1">
          <mxGeometry width="50" height="50" relative="1" as="geometry">
            <mxPoint x="545" y="1260" as="sourcePoint" />
            <mxPoint x="600" y="1250" as="targetPoint" />
          </mxGeometry>
        </mxCell>
        <mxCell id="-n0_h4fopmZt9PzkOisp-47" value="" style="ellipse;whiteSpace=wrap;html=1;aspect=fixed;" vertex="1" parent="1">
          <mxGeometry x="592.5" y="1280" width="20" height="20" as="geometry" />
        </mxCell>
        <mxCell id="-n0_h4fopmZt9PzkOisp-48" value="" style="endArrow=none;html=1;rounded=0;entryX=0;entryY=0.5;entryDx=0;entryDy=0;exitX=1;exitY=0.5;exitDx=0;exitDy=0;" edge="1" parent="1" target="-n0_h4fopmZt9PzkOisp-47" source="-n0_h4fopmZt9PzkOisp-14">
          <mxGeometry width="50" height="50" relative="1" as="geometry">
            <mxPoint x="570" y="1290" as="sourcePoint" />
            <mxPoint x="600" y="1280" as="targetPoint" />
          </mxGeometry>
        </mxCell>
        <mxCell id="-n0_h4fopmZt9PzkOisp-49" value="" style="ellipse;whiteSpace=wrap;html=1;aspect=fixed;" vertex="1" parent="1">
          <mxGeometry x="592.5" y="1310" width="20" height="20" as="geometry" />
        </mxCell>
        <mxCell id="-n0_h4fopmZt9PzkOisp-50" value="" style="endArrow=none;html=1;rounded=0;entryX=0;entryY=0.5;entryDx=0;entryDy=0;exitX=1;exitY=1;exitDx=0;exitDy=0;" edge="1" parent="1" target="-n0_h4fopmZt9PzkOisp-49" source="-n0_h4fopmZt9PzkOisp-14">
          <mxGeometry width="50" height="50" relative="1" as="geometry">
            <mxPoint x="567.5" y="1320" as="sourcePoint" />
            <mxPoint x="602.5" y="1310" as="targetPoint" />
          </mxGeometry>
        </mxCell>
        <mxCell id="-n0_h4fopmZt9PzkOisp-51" value="Dia" style="text;html=1;align=center;verticalAlign=middle;resizable=0;points=[];autosize=1;strokeColor=none;fillColor=none;" vertex="1" parent="1">
          <mxGeometry x="612.5" y="1245" width="40" height="30" as="geometry" />
        </mxCell>
        <mxCell id="-n0_h4fopmZt9PzkOisp-52" value="Hora incio" style="text;html=1;align=center;verticalAlign=middle;resizable=0;points=[];autosize=1;strokeColor=none;fillColor=none;" vertex="1" parent="1">
          <mxGeometry x="605" y="1275" width="80" height="30" as="geometry" />
        </mxCell>
        <mxCell id="-n0_h4fopmZt9PzkOisp-53" value="Hora fin" style="text;html=1;align=center;verticalAlign=middle;resizable=0;points=[];autosize=1;strokeColor=none;fillColor=none;" vertex="1" parent="1">
          <mxGeometry x="605" y="1305" width="70" height="30" as="geometry" />
        </mxCell>
        <mxCell id="-n0_h4fopmZt9PzkOisp-54" value="" style="ellipse;whiteSpace=wrap;html=1;aspect=fixed;fillColor=#000000;" vertex="1" parent="1">
          <mxGeometry x="435" y="1219.0000000000002" width="20" height="20" as="geometry" />
        </mxCell>
        <mxCell id="-n0_h4fopmZt9PzkOisp-55" value="" style="endArrow=none;html=1;rounded=0;entryX=0.5;entryY=1;entryDx=0;entryDy=0;" edge="1" target="-n0_h4fopmZt9PzkOisp-54" parent="1">
          <mxGeometry width="50" height="50" relative="1" as="geometry">
            <mxPoint x="445" y="1260.0000000000002" as="sourcePoint" />
            <mxPoint x="435" y="1214.0000000000002" as="targetPoint" />
          </mxGeometry>
        </mxCell>
        <mxCell id="-n0_h4fopmZt9PzkOisp-56" value="#Turnos" style="text;html=1;align=center;verticalAlign=middle;resizable=0;points=[];autosize=1;strokeColor=none;fillColor=none;" vertex="1" parent="1">
          <mxGeometry x="410" y="1189" width="70" height="30" as="geometry" />
        </mxCell>
        <mxCell id="-n0_h4fopmZt9PzkOisp-57" value="Mueble" style="rounded=0;whiteSpace=wrap;html=1;" vertex="1" parent="1">
          <mxGeometry x="-100" y="980" width="120" height="60" as="geometry" />
        </mxCell>
        <mxCell id="-n0_h4fopmZt9PzkOisp-58" value="&lt;font size=&quot;1&quot;&gt;crea&lt;/font&gt;" style="rhombus;whiteSpace=wrap;html=1;" vertex="1" parent="1">
          <mxGeometry x="100" y="985" width="50" height="50" as="geometry" />
        </mxCell>
        <mxCell id="-n0_h4fopmZt9PzkOisp-59" value="" style="endArrow=none;html=1;rounded=0;exitX=1;exitY=0.5;exitDx=0;exitDy=0;entryX=0;entryY=0.5;entryDx=0;entryDy=0;" edge="1" parent="1" source="-n0_h4fopmZt9PzkOisp-57" target="-n0_h4fopmZt9PzkOisp-58">
          <mxGeometry width="50" height="50" relative="1" as="geometry">
            <mxPoint x="40" y="970" as="sourcePoint" />
            <mxPoint x="90" y="920" as="targetPoint" />
          </mxGeometry>
        </mxCell>
        <mxCell id="-n0_h4fopmZt9PzkOisp-60" value="" style="endArrow=none;html=1;rounded=0;exitX=1;exitY=0.5;exitDx=0;exitDy=0;entryX=0;entryY=0.5;entryDx=0;entryDy=0;" edge="1" parent="1" source="-n0_h4fopmZt9PzkOisp-58" target="-n0_h4fopmZt9PzkOisp-3">
          <mxGeometry width="50" height="50" relative="1" as="geometry">
            <mxPoint x="180" y="990" as="sourcePoint" />
            <mxPoint x="230" y="940" as="targetPoint" />
          </mxGeometry>
        </mxCell>
        <mxCell id="-n0_h4fopmZt9PzkOisp-62" value="1,1" style="text;html=1;align=center;verticalAlign=middle;resizable=0;points=[];autosize=1;strokeColor=none;fillColor=none;" vertex="1" parent="1">
          <mxGeometry x="195" y="985" width="40" height="30" as="geometry" />
        </mxCell>
        <mxCell id="-n0_h4fopmZt9PzkOisp-63" value="1,1" style="text;html=1;align=center;verticalAlign=middle;resizable=0;points=[];autosize=1;strokeColor=none;fillColor=none;" vertex="1" parent="1">
          <mxGeometry x="20" y="985" width="40" height="30" as="geometry" />
        </mxCell>
        <mxCell id="-n0_h4fopmZt9PzkOisp-64" value="1,N" style="text;html=1;align=center;verticalAlign=middle;resizable=0;points=[];autosize=1;strokeColor=none;fillColor=none;" vertex="1" parent="1">
          <mxGeometry x="497.5" y="1234" width="40" height="30" as="geometry" />
        </mxCell>
        <mxCell id="-n0_h4fopmZt9PzkOisp-65" value="1,1" style="text;html=1;align=center;verticalAlign=middle;resizable=0;points=[];autosize=1;strokeColor=none;fillColor=none;" vertex="1" parent="1">
          <mxGeometry x="497.5" y="1060" width="40" height="30" as="geometry" />
        </mxCell>
        <mxCell id="-n0_h4fopmZt9PzkOisp-116" value="" style="rounded=0;whiteSpace=wrap;html=1;labelBackgroundColor=none;" vertex="1" parent="1">
          <mxGeometry x="1365" y="900" width="565" height="160" as="geometry" />
        </mxCell>
        <mxCell id="-n0_h4fopmZt9PzkOisp-117" value="Deparamento" style="rounded=0;whiteSpace=wrap;html=1;" vertex="1" parent="1">
          <mxGeometry x="1400" y="980" width="120" height="60" as="geometry" />
        </mxCell>
        <mxCell id="-n0_h4fopmZt9PzkOisp-118" value="" style="endArrow=none;html=1;rounded=0;exitX=1;exitY=0.5;exitDx=0;exitDy=0;entryX=0;entryY=0.5;entryDx=0;entryDy=0;" edge="1" parent="1" source="-n0_h4fopmZt9PzkOisp-117" target="-n0_h4fopmZt9PzkOisp-119">
          <mxGeometry width="50" height="50" relative="1" as="geometry">
            <mxPoint x="1600" y="1020" as="sourcePoint" />
            <mxPoint x="1650" y="1010" as="targetPoint" />
          </mxGeometry>
        </mxCell>
        <mxCell id="-n0_h4fopmZt9PzkOisp-119" value="&lt;font style=&quot;font-size: 9px;&quot;&gt;tiene&lt;/font&gt;" style="rhombus;whiteSpace=wrap;html=1;" vertex="1" parent="1">
          <mxGeometry x="1610" y="985" width="50" height="50" as="geometry" />
        </mxCell>
        <mxCell id="-n0_h4fopmZt9PzkOisp-120" value="" style="endArrow=none;html=1;rounded=0;exitX=1;exitY=0.5;exitDx=0;exitDy=0;entryX=0;entryY=0.5;entryDx=0;entryDy=0;" edge="1" parent="1" source="-n0_h4fopmZt9PzkOisp-119" target="-n0_h4fopmZt9PzkOisp-121">
          <mxGeometry width="50" height="50" relative="1" as="geometry">
            <mxPoint x="1710" y="990" as="sourcePoint" />
            <mxPoint x="1750" y="1010" as="targetPoint" />
          </mxGeometry>
        </mxCell>
        <mxCell id="-n0_h4fopmZt9PzkOisp-121" value="Empleado" style="rounded=0;whiteSpace=wrap;html=1;" vertex="1" parent="1">
          <mxGeometry x="1760" y="980" width="120" height="60" as="geometry" />
        </mxCell>
        <mxCell id="-n0_h4fopmZt9PzkOisp-122" value="1,N" style="text;html=1;align=center;verticalAlign=middle;resizable=0;points=[];autosize=1;strokeColor=none;fillColor=none;" vertex="1" parent="1">
          <mxGeometry x="1722.5" y="985" width="40" height="30" as="geometry" />
        </mxCell>
        <mxCell id="-n0_h4fopmZt9PzkOisp-123" value="0,N" style="text;html=1;align=center;verticalAlign=middle;resizable=0;points=[];autosize=1;strokeColor=none;fillColor=none;" vertex="1" parent="1">
          <mxGeometry x="1520" y="980" width="40" height="30" as="geometry" />
        </mxCell>
        <mxCell id="-n0_h4fopmZt9PzkOisp-124" value="" style="endArrow=none;html=1;rounded=0;entryX=0.477;entryY=1;entryDx=0;entryDy=0;exitX=0;exitY=0.5;exitDx=0;exitDy=0;entryPerimeter=0;" edge="1" parent="1" source="-n0_h4fopmZt9PzkOisp-125" target="-n0_h4fopmZt9PzkOisp-116">
          <mxGeometry width="50" height="50" relative="1" as="geometry">
            <mxPoint x="1635" y="1130" as="sourcePoint" />
            <mxPoint x="1680" y="1090" as="targetPoint" />
          </mxGeometry>
        </mxCell>
        <mxCell id="-n0_h4fopmZt9PzkOisp-125" value="&lt;font style=&quot;font-size: 9px;&quot;&gt;Realiza&lt;/font&gt;" style="rhombus;whiteSpace=wrap;html=1;direction=south;" vertex="1" parent="1">
          <mxGeometry x="1610" y="1130" width="50" height="50" as="geometry" />
        </mxCell>
        <mxCell id="-n0_h4fopmZt9PzkOisp-126" value="" style="endArrow=none;html=1;rounded=0;entryX=1;entryY=0.5;entryDx=0;entryDy=0;exitX=0.5;exitY=0;exitDx=0;exitDy=0;" edge="1" parent="1" source="-n0_h4fopmZt9PzkOisp-127" target="-n0_h4fopmZt9PzkOisp-125">
          <mxGeometry width="50" height="50" relative="1" as="geometry">
            <mxPoint x="1635" y="1250" as="sourcePoint" />
            <mxPoint x="1620" y="1250" as="targetPoint" />
          </mxGeometry>
        </mxCell>
        <mxCell id="-n0_h4fopmZt9PzkOisp-127" value="Turnos" style="rounded=0;whiteSpace=wrap;html=1;" vertex="1" parent="1">
          <mxGeometry x="1575" y="1260" width="120" height="60" as="geometry" />
        </mxCell>
        <mxCell id="-n0_h4fopmZt9PzkOisp-128" value="" style="ellipse;whiteSpace=wrap;html=1;aspect=fixed;fillColor=#000000;rotation=-30;" vertex="1" parent="1">
          <mxGeometry x="1385" y="940" width="20" height="20" as="geometry" />
        </mxCell>
        <mxCell id="-n0_h4fopmZt9PzkOisp-129" value="" style="endArrow=none;html=1;rounded=0;entryX=0.5;entryY=1;entryDx=0;entryDy=0;" edge="1" parent="1" target="-n0_h4fopmZt9PzkOisp-128">
          <mxGeometry width="50" height="50" relative="1" as="geometry">
            <mxPoint x="1410" y="981" as="sourcePoint" />
            <mxPoint x="1400" y="935" as="targetPoint" />
          </mxGeometry>
        </mxCell>
        <mxCell id="-n0_h4fopmZt9PzkOisp-130" value="" style="ellipse;whiteSpace=wrap;html=1;aspect=fixed;" vertex="1" parent="1">
          <mxGeometry x="1450" y="940" width="20" height="20" as="geometry" />
        </mxCell>
        <mxCell id="-n0_h4fopmZt9PzkOisp-131" value="" style="endArrow=none;html=1;rounded=0;entryX=0.5;entryY=1;entryDx=0;entryDy=0;exitX=0.5;exitY=0;exitDx=0;exitDy=0;" edge="1" parent="1" source="-n0_h4fopmZt9PzkOisp-117" target="-n0_h4fopmZt9PzkOisp-130">
          <mxGeometry width="50" height="50" relative="1" as="geometry">
            <mxPoint x="1440" y="980" as="sourcePoint" />
            <mxPoint x="1440" y="930" as="targetPoint" />
          </mxGeometry>
        </mxCell>
        <mxCell id="-n0_h4fopmZt9PzkOisp-132" value="Nombre" style="text;html=1;align=center;verticalAlign=middle;resizable=0;points=[];autosize=1;strokeColor=none;fillColor=none;" vertex="1" parent="1">
          <mxGeometry x="1360" y="910" width="70" height="30" as="geometry" />
        </mxCell>
        <mxCell id="-n0_h4fopmZt9PzkOisp-133" value="Produccion" style="text;html=1;align=center;verticalAlign=middle;resizable=0;points=[];autosize=1;strokeColor=none;fillColor=none;" vertex="1" parent="1">
          <mxGeometry x="1420" y="910" width="80" height="30" as="geometry" />
        </mxCell>
        <mxCell id="-n0_h4fopmZt9PzkOisp-134" value="" style="ellipse;whiteSpace=wrap;html=1;aspect=fixed;fillColor=#000000;rotation=-30;" vertex="1" parent="1">
          <mxGeometry x="1740" y="940" width="20" height="20" as="geometry" />
        </mxCell>
        <mxCell id="-n0_h4fopmZt9PzkOisp-135" value="" style="endArrow=none;html=1;rounded=0;entryX=0.5;entryY=1;entryDx=0;entryDy=0;exitX=0.077;exitY=-0.008;exitDx=0;exitDy=0;exitPerimeter=0;" edge="1" parent="1" source="-n0_h4fopmZt9PzkOisp-121" target="-n0_h4fopmZt9PzkOisp-134">
          <mxGeometry width="50" height="50" relative="1" as="geometry">
            <mxPoint x="1775" y="976" as="sourcePoint" />
            <mxPoint x="1770" y="931" as="targetPoint" />
          </mxGeometry>
        </mxCell>
        <mxCell id="-n0_h4fopmZt9PzkOisp-136" value="Nombre" style="text;html=1;align=center;verticalAlign=middle;resizable=0;points=[];autosize=1;strokeColor=none;fillColor=none;" vertex="1" parent="1">
          <mxGeometry x="1755" y="910" width="70" height="30" as="geometry" />
        </mxCell>
        <mxCell id="-n0_h4fopmZt9PzkOisp-137" value="" style="ellipse;whiteSpace=wrap;html=1;aspect=fixed;" vertex="1" parent="1">
          <mxGeometry x="1780" y="940" width="20" height="20" as="geometry" />
        </mxCell>
        <mxCell id="-n0_h4fopmZt9PzkOisp-138" value="" style="endArrow=none;html=1;rounded=0;entryX=0.5;entryY=1;entryDx=0;entryDy=0;exitX=0.5;exitY=0;exitDx=0;exitDy=0;" edge="1" parent="1" target="-n0_h4fopmZt9PzkOisp-137">
          <mxGeometry width="50" height="50" relative="1" as="geometry">
            <mxPoint x="1790" y="980" as="sourcePoint" />
            <mxPoint x="1770" y="930" as="targetPoint" />
          </mxGeometry>
        </mxCell>
        <mxCell id="-n0_h4fopmZt9PzkOisp-139" value="Dni" style="text;html=1;align=center;verticalAlign=middle;whiteSpace=wrap;rounded=0;" vertex="1" parent="1">
          <mxGeometry x="1700" y="920" width="60" height="30" as="geometry" />
        </mxCell>
        <mxCell id="-n0_h4fopmZt9PzkOisp-140" value="" style="ellipse;whiteSpace=wrap;html=1;aspect=fixed;" vertex="1" parent="1">
          <mxGeometry x="1835" y="940" width="20" height="20" as="geometry" />
        </mxCell>
        <mxCell id="-n0_h4fopmZt9PzkOisp-141" value="" style="endArrow=none;html=1;rounded=0;entryX=0.5;entryY=1;entryDx=0;entryDy=0;exitX=0.25;exitY=0;exitDx=0;exitDy=0;" edge="1" parent="1" target="-n0_h4fopmZt9PzkOisp-140">
          <mxGeometry width="50" height="50" relative="1" as="geometry">
            <mxPoint x="1845" y="980" as="sourcePoint" />
            <mxPoint x="1845" y="930" as="targetPoint" />
          </mxGeometry>
        </mxCell>
        <mxCell id="-n0_h4fopmZt9PzkOisp-142" value="Apellido" style="text;html=1;align=center;verticalAlign=middle;resizable=0;points=[];autosize=1;strokeColor=none;fillColor=none;" vertex="1" parent="1">
          <mxGeometry x="1810" y="910" width="70" height="30" as="geometry" />
        </mxCell>
        <mxCell id="-n0_h4fopmZt9PzkOisp-143" value="" style="ellipse;whiteSpace=wrap;html=1;aspect=fixed;rotation=30;" vertex="1" parent="1">
          <mxGeometry x="1890" y="940" width="20" height="20" as="geometry" />
        </mxCell>
        <mxCell id="-n0_h4fopmZt9PzkOisp-144" value="" style="endArrow=none;html=1;rounded=0;entryX=0.5;entryY=1;entryDx=0;entryDy=0;exitX=1;exitY=0;exitDx=0;exitDy=0;" edge="1" parent="1" source="-n0_h4fopmZt9PzkOisp-121" target="-n0_h4fopmZt9PzkOisp-143">
          <mxGeometry width="50" height="50" relative="1" as="geometry">
            <mxPoint x="1900" y="985" as="sourcePoint" />
            <mxPoint x="1900" y="935" as="targetPoint" />
          </mxGeometry>
        </mxCell>
        <mxCell id="-n0_h4fopmZt9PzkOisp-145" value="Legajo" style="text;html=1;align=center;verticalAlign=middle;resizable=0;points=[];autosize=1;strokeColor=none;fillColor=none;" vertex="1" parent="1">
          <mxGeometry x="1870" y="910" width="60" height="30" as="geometry" />
        </mxCell>
        <mxCell id="-n0_h4fopmZt9PzkOisp-146" value="" style="ellipse;whiteSpace=wrap;html=1;aspect=fixed;" vertex="1" parent="1">
          <mxGeometry x="1722.5" y="1250" width="20" height="20" as="geometry" />
        </mxCell>
        <mxCell id="-n0_h4fopmZt9PzkOisp-147" value="" style="endArrow=none;html=1;rounded=0;entryX=0;entryY=0.5;entryDx=0;entryDy=0;exitX=1;exitY=0;exitDx=0;exitDy=0;" edge="1" parent="1" target="-n0_h4fopmZt9PzkOisp-146">
          <mxGeometry width="50" height="50" relative="1" as="geometry">
            <mxPoint x="1675" y="1260" as="sourcePoint" />
            <mxPoint x="1730" y="1250" as="targetPoint" />
          </mxGeometry>
        </mxCell>
        <mxCell id="-n0_h4fopmZt9PzkOisp-148" value="" style="ellipse;whiteSpace=wrap;html=1;aspect=fixed;" vertex="1" parent="1">
          <mxGeometry x="1722.5" y="1280" width="20" height="20" as="geometry" />
        </mxCell>
        <mxCell id="-n0_h4fopmZt9PzkOisp-149" value="" style="endArrow=none;html=1;rounded=0;entryX=0;entryY=0.5;entryDx=0;entryDy=0;exitX=1;exitY=0.5;exitDx=0;exitDy=0;" edge="1" parent="1" source="-n0_h4fopmZt9PzkOisp-127" target="-n0_h4fopmZt9PzkOisp-148">
          <mxGeometry width="50" height="50" relative="1" as="geometry">
            <mxPoint x="1700" y="1290" as="sourcePoint" />
            <mxPoint x="1730" y="1280" as="targetPoint" />
          </mxGeometry>
        </mxCell>
        <mxCell id="-n0_h4fopmZt9PzkOisp-150" value="" style="ellipse;whiteSpace=wrap;html=1;aspect=fixed;" vertex="1" parent="1">
          <mxGeometry x="1722.5" y="1310" width="20" height="20" as="geometry" />
        </mxCell>
        <mxCell id="-n0_h4fopmZt9PzkOisp-151" value="" style="endArrow=none;html=1;rounded=0;entryX=0;entryY=0.5;entryDx=0;entryDy=0;exitX=1;exitY=1;exitDx=0;exitDy=0;" edge="1" parent="1" source="-n0_h4fopmZt9PzkOisp-127" target="-n0_h4fopmZt9PzkOisp-150">
          <mxGeometry width="50" height="50" relative="1" as="geometry">
            <mxPoint x="1697.5" y="1320" as="sourcePoint" />
            <mxPoint x="1732.5" y="1310" as="targetPoint" />
          </mxGeometry>
        </mxCell>
        <mxCell id="-n0_h4fopmZt9PzkOisp-152" value="Dia" style="text;html=1;align=center;verticalAlign=middle;resizable=0;points=[];autosize=1;strokeColor=none;fillColor=none;" vertex="1" parent="1">
          <mxGeometry x="1742.5" y="1245" width="40" height="30" as="geometry" />
        </mxCell>
        <mxCell id="-n0_h4fopmZt9PzkOisp-153" value="Hora incio" style="text;html=1;align=center;verticalAlign=middle;resizable=0;points=[];autosize=1;strokeColor=none;fillColor=none;" vertex="1" parent="1">
          <mxGeometry x="1735" y="1275" width="80" height="30" as="geometry" />
        </mxCell>
        <mxCell id="-n0_h4fopmZt9PzkOisp-154" value="Hora fin" style="text;html=1;align=center;verticalAlign=middle;resizable=0;points=[];autosize=1;strokeColor=none;fillColor=none;" vertex="1" parent="1">
          <mxGeometry x="1735" y="1305" width="70" height="30" as="geometry" />
        </mxCell>
        <mxCell id="-n0_h4fopmZt9PzkOisp-155" value="" style="ellipse;whiteSpace=wrap;html=1;aspect=fixed;fillColor=#000000;" vertex="1" parent="1">
          <mxGeometry x="1565" y="1219.0000000000002" width="20" height="20" as="geometry" />
        </mxCell>
        <mxCell id="-n0_h4fopmZt9PzkOisp-156" value="" style="endArrow=none;html=1;rounded=0;entryX=0.5;entryY=1;entryDx=0;entryDy=0;" edge="1" parent="1" target="-n0_h4fopmZt9PzkOisp-155">
          <mxGeometry width="50" height="50" relative="1" as="geometry">
            <mxPoint x="1575" y="1260.0000000000002" as="sourcePoint" />
            <mxPoint x="1565" y="1214.0000000000002" as="targetPoint" />
          </mxGeometry>
        </mxCell>
        <mxCell id="-n0_h4fopmZt9PzkOisp-157" value="#Turnos" style="text;html=1;align=center;verticalAlign=middle;resizable=0;points=[];autosize=1;strokeColor=none;fillColor=none;" vertex="1" parent="1">
          <mxGeometry x="1540" y="1189" width="70" height="30" as="geometry" />
        </mxCell>
        <mxCell id="-n0_h4fopmZt9PzkOisp-159" value="&lt;font size=&quot;1&quot;&gt;crea&lt;/font&gt;" style="rhombus;whiteSpace=wrap;html=1;" vertex="1" parent="1">
          <mxGeometry x="1230" y="985" width="50" height="50" as="geometry" />
        </mxCell>
        <mxCell id="-n0_h4fopmZt9PzkOisp-160" value="" style="endArrow=none;html=1;rounded=0;exitX=1;exitY=0.5;exitDx=0;exitDy=0;entryX=0;entryY=0.5;entryDx=0;entryDy=0;" edge="1" parent="1" target="-n0_h4fopmZt9PzkOisp-159">
          <mxGeometry width="50" height="50" relative="1" as="geometry">
            <mxPoint x="1150" y="1009.9999999999998" as="sourcePoint" />
            <mxPoint x="1220" y="920" as="targetPoint" />
          </mxGeometry>
        </mxCell>
        <mxCell id="-n0_h4fopmZt9PzkOisp-161" value="" style="endArrow=none;html=1;rounded=0;exitX=1;exitY=0.5;exitDx=0;exitDy=0;entryX=0;entryY=0.5;entryDx=0;entryDy=0;" edge="1" parent="1" source="-n0_h4fopmZt9PzkOisp-159" target="-n0_h4fopmZt9PzkOisp-117">
          <mxGeometry width="50" height="50" relative="1" as="geometry">
            <mxPoint x="1310" y="990" as="sourcePoint" />
            <mxPoint x="1360" y="940" as="targetPoint" />
          </mxGeometry>
        </mxCell>
        <mxCell id="-n0_h4fopmZt9PzkOisp-162" value="1,1" style="text;html=1;align=center;verticalAlign=middle;resizable=0;points=[];autosize=1;strokeColor=none;fillColor=none;" vertex="1" parent="1">
          <mxGeometry x="1325" y="985" width="40" height="30" as="geometry" />
        </mxCell>
        <mxCell id="-n0_h4fopmZt9PzkOisp-164" value="1,N" style="text;html=1;align=center;verticalAlign=middle;resizable=0;points=[];autosize=1;strokeColor=none;fillColor=none;" vertex="1" parent="1">
          <mxGeometry x="1627.5" y="1230" width="40" height="30" as="geometry" />
        </mxCell>
        <mxCell id="-n0_h4fopmZt9PzkOisp-165" value="1,1" style="text;html=1;align=center;verticalAlign=middle;resizable=0;points=[];autosize=1;strokeColor=none;fillColor=none;" vertex="1" parent="1">
          <mxGeometry x="1627.5" y="1060" width="40" height="30" as="geometry" />
        </mxCell>
        <mxCell id="-n0_h4fopmZt9PzkOisp-166" value="" style="ellipse;whiteSpace=wrap;html=1;aspect=fixed;" vertex="1" parent="1">
          <mxGeometry x="1625" y="950" width="20" height="20" as="geometry" />
        </mxCell>
        <mxCell id="-n0_h4fopmZt9PzkOisp-167" value="" style="endArrow=none;html=1;rounded=0;entryX=0.5;entryY=1;entryDx=0;entryDy=0;exitX=0.5;exitY=0;exitDx=0;exitDy=0;" edge="1" target="-n0_h4fopmZt9PzkOisp-166" parent="1" source="-n0_h4fopmZt9PzkOisp-119">
          <mxGeometry width="50" height="50" relative="1" as="geometry">
            <mxPoint x="1635" y="990" as="sourcePoint" />
            <mxPoint x="1635" y="940" as="targetPoint" />
          </mxGeometry>
        </mxCell>
        <mxCell id="-n0_h4fopmZt9PzkOisp-168" value="Es_responsable" style="text;html=1;align=center;verticalAlign=middle;resizable=0;points=[];autosize=1;strokeColor=none;fillColor=none;" vertex="1" parent="1">
          <mxGeometry x="1575" y="915" width="110" height="30" as="geometry" />
        </mxCell>
        <mxCell id="-n0_h4fopmZt9PzkOisp-169" value="&lt;font style=&quot;font-size: 9px;&quot;&gt;Es_responsable&lt;/font&gt;" style="rhombus;whiteSpace=wrap;html=1;" vertex="1" parent="1">
          <mxGeometry x="460" y="920" width="90" height="55" as="geometry" />
        </mxCell>
        <mxCell id="-n0_h4fopmZt9PzkOisp-170" value="" style="endArrow=none;html=1;rounded=0;exitX=1;exitY=0;exitDx=0;exitDy=0;entryX=0;entryY=0.5;entryDx=0;entryDy=0;" edge="1" parent="1" source="-n0_h4fopmZt9PzkOisp-3" target="-n0_h4fopmZt9PzkOisp-169">
          <mxGeometry width="50" height="50" relative="1" as="geometry">
            <mxPoint x="400" y="970" as="sourcePoint" />
            <mxPoint x="450" y="920" as="targetPoint" />
          </mxGeometry>
        </mxCell>
        <mxCell id="-n0_h4fopmZt9PzkOisp-171" value="" style="endArrow=none;html=1;rounded=0;exitX=0;exitY=0;exitDx=0;exitDy=0;entryX=1;entryY=0.5;entryDx=0;entryDy=0;" edge="1" parent="1" source="-n0_h4fopmZt9PzkOisp-7" target="-n0_h4fopmZt9PzkOisp-169">
          <mxGeometry width="50" height="50" relative="1" as="geometry">
            <mxPoint x="510" y="986.5" as="sourcePoint" />
            <mxPoint x="580" y="953.5" as="targetPoint" />
          </mxGeometry>
        </mxCell>
        <mxCell id="-n0_h4fopmZt9PzkOisp-172" value="1,1" style="text;html=1;align=center;verticalAlign=middle;resizable=0;points=[];autosize=1;strokeColor=none;fillColor=none;" vertex="1" parent="1">
          <mxGeometry x="552.5" y="955" width="40" height="30" as="geometry" />
        </mxCell>
        <mxCell id="-n0_h4fopmZt9PzkOisp-173" value="0,1" style="text;html=1;align=center;verticalAlign=middle;resizable=0;points=[];autosize=1;strokeColor=none;fillColor=none;" vertex="1" parent="1">
          <mxGeometry x="390" y="940" width="40" height="30" as="geometry" />
        </mxCell>
        <mxCell id="-n0_h4fopmZt9PzkOisp-174" value="&lt;font size=&quot;1&quot;&gt;posee&lt;/font&gt;" style="rhombus;whiteSpace=wrap;html=1;" vertex="1" parent="1">
          <mxGeometry x="-65" y="1100" width="50" height="50" as="geometry" />
        </mxCell>
        <mxCell id="-n0_h4fopmZt9PzkOisp-175" value="" style="endArrow=none;html=1;rounded=0;entryX=0.5;entryY=1;entryDx=0;entryDy=0;exitX=0.5;exitY=0;exitDx=0;exitDy=0;" edge="1" parent="1" source="-n0_h4fopmZt9PzkOisp-174" target="-n0_h4fopmZt9PzkOisp-57">
          <mxGeometry width="50" height="50" relative="1" as="geometry">
            <mxPoint x="-140" y="1130" as="sourcePoint" />
            <mxPoint x="-90" y="1080" as="targetPoint" />
          </mxGeometry>
        </mxCell>
        <mxCell id="-n0_h4fopmZt9PzkOisp-176" value="" style="endArrow=none;html=1;rounded=0;entryX=0.5;entryY=1;entryDx=0;entryDy=0;exitX=0.5;exitY=0;exitDx=0;exitDy=0;" edge="1" parent="1" source="-n0_h4fopmZt9PzkOisp-177" target="-n0_h4fopmZt9PzkOisp-174">
          <mxGeometry width="50" height="50" relative="1" as="geometry">
            <mxPoint x="-40" y="1200" as="sourcePoint" />
            <mxPoint x="-30" y="1200" as="targetPoint" />
          </mxGeometry>
        </mxCell>
        <mxCell id="-n0_h4fopmZt9PzkOisp-177" value="Material" style="rounded=0;whiteSpace=wrap;html=1;" vertex="1" parent="1">
          <mxGeometry x="-100" y="1215" width="120" height="60" as="geometry" />
        </mxCell>
        <mxCell id="-n0_h4fopmZt9PzkOisp-178" value="" style="ellipse;whiteSpace=wrap;html=1;aspect=fixed;rotation=-30;" vertex="1" parent="1">
          <mxGeometry x="-110" y="935" width="20" height="20" as="geometry" />
        </mxCell>
        <mxCell id="-n0_h4fopmZt9PzkOisp-179" value="" style="endArrow=none;html=1;rounded=0;entryX=0.5;entryY=1;entryDx=0;entryDy=0;exitX=0.198;exitY=0.01;exitDx=0;exitDy=0;exitPerimeter=0;" edge="1" target="-n0_h4fopmZt9PzkOisp-178" parent="1" source="-n0_h4fopmZt9PzkOisp-57">
          <mxGeometry width="50" height="50" relative="1" as="geometry">
            <mxPoint x="-75" y="980" as="sourcePoint" />
            <mxPoint x="-75" y="930" as="targetPoint" />
          </mxGeometry>
        </mxCell>
        <mxCell id="-n0_h4fopmZt9PzkOisp-180" value="" style="ellipse;whiteSpace=wrap;html=1;aspect=fixed;" vertex="1" parent="1">
          <mxGeometry x="-40" y="937.5" width="20" height="20" as="geometry" />
        </mxCell>
        <mxCell id="-n0_h4fopmZt9PzkOisp-181" value="" style="endArrow=none;html=1;rounded=0;entryX=0.5;entryY=1;entryDx=0;entryDy=0;exitX=0.568;exitY=-0.041;exitDx=0;exitDy=0;exitPerimeter=0;" edge="1" target="-n0_h4fopmZt9PzkOisp-180" parent="1" source="-n0_h4fopmZt9PzkOisp-57">
          <mxGeometry width="50" height="50" relative="1" as="geometry">
            <mxPoint x="-40" y="980" as="sourcePoint" />
            <mxPoint x="-40" y="930" as="targetPoint" />
          </mxGeometry>
        </mxCell>
        <mxCell id="-n0_h4fopmZt9PzkOisp-182" value="Horas-hombre" style="text;html=1;align=center;verticalAlign=middle;resizable=0;points=[];autosize=1;strokeColor=none;fillColor=none;" vertex="1" parent="1">
          <mxGeometry x="-150" y="910" width="100" height="30" as="geometry" />
        </mxCell>
        <mxCell id="-n0_h4fopmZt9PzkOisp-183" value="Volumen" style="text;html=1;align=center;verticalAlign=middle;resizable=0;points=[];autosize=1;strokeColor=none;fillColor=none;" vertex="1" parent="1">
          <mxGeometry x="-50" y="910" width="70" height="30" as="geometry" />
        </mxCell>
        <mxCell id="-n0_h4fopmZt9PzkOisp-184" value="" style="ellipse;whiteSpace=wrap;html=1;aspect=fixed;fillColor=#000000;rotation=-90;" vertex="1" parent="1">
          <mxGeometry x="-160" y="970.0000000000002" width="20" height="20" as="geometry" />
        </mxCell>
        <mxCell id="-n0_h4fopmZt9PzkOisp-185" value="" style="endArrow=none;html=1;rounded=0;entryX=0.5;entryY=1;entryDx=0;entryDy=0;exitX=0;exitY=0;exitDx=0;exitDy=0;" edge="1" target="-n0_h4fopmZt9PzkOisp-184" parent="1" source="-n0_h4fopmZt9PzkOisp-57">
          <mxGeometry width="50" height="50" relative="1" as="geometry">
            <mxPoint x="-200" y="1000.0000000000002" as="sourcePoint" />
            <mxPoint x="-210" y="954.0000000000002" as="targetPoint" />
          </mxGeometry>
        </mxCell>
        <mxCell id="-n0_h4fopmZt9PzkOisp-186" value="#Mueble" style="text;html=1;align=center;verticalAlign=middle;resizable=0;points=[];autosize=1;strokeColor=none;fillColor=none;" vertex="1" parent="1">
          <mxGeometry x="-230" y="965" width="70" height="30" as="geometry" />
        </mxCell>
        <mxCell id="-n0_h4fopmZt9PzkOisp-187" value="" style="ellipse;whiteSpace=wrap;html=1;aspect=fixed;fillColor=#000000;" vertex="1" parent="1">
          <mxGeometry x="-150" y="1209" width="20" height="20" as="geometry" />
        </mxCell>
        <mxCell id="-n0_h4fopmZt9PzkOisp-188" value="" style="endArrow=none;html=1;rounded=0;entryX=1;entryY=0.5;entryDx=0;entryDy=0;" edge="1" target="-n0_h4fopmZt9PzkOisp-187" parent="1">
          <mxGeometry width="50" height="50" relative="1" as="geometry">
            <mxPoint x="-99" y="1219" as="sourcePoint" />
            <mxPoint x="25" y="1199" as="targetPoint" />
          </mxGeometry>
        </mxCell>
        <mxCell id="-n0_h4fopmZt9PzkOisp-189" value="" style="ellipse;whiteSpace=wrap;html=1;aspect=fixed;" vertex="1" parent="1">
          <mxGeometry x="-110" y="1180" width="20" height="20" as="geometry" />
        </mxCell>
        <mxCell id="-n0_h4fopmZt9PzkOisp-190" value="" style="endArrow=none;html=1;rounded=0;entryX=0.5;entryY=1;entryDx=0;entryDy=0;exitX=0.25;exitY=0;exitDx=0;exitDy=0;" edge="1" target="-n0_h4fopmZt9PzkOisp-189" parent="1">
          <mxGeometry width="50" height="50" relative="1" as="geometry">
            <mxPoint x="-100" y="1215" as="sourcePoint" />
            <mxPoint x="-100" y="1165" as="targetPoint" />
          </mxGeometry>
        </mxCell>
        <mxCell id="-n0_h4fopmZt9PzkOisp-191" value="Stock" style="text;html=1;align=center;verticalAlign=middle;resizable=0;points=[];autosize=1;strokeColor=none;fillColor=none;" vertex="1" parent="1">
          <mxGeometry x="-130" y="1150" width="50" height="30" as="geometry" />
        </mxCell>
        <mxCell id="-n0_h4fopmZt9PzkOisp-192" value="Nombre" style="text;html=1;align=center;verticalAlign=middle;resizable=0;points=[];autosize=1;strokeColor=none;fillColor=none;" vertex="1" parent="1">
          <mxGeometry x="-210" y="1204" width="70" height="30" as="geometry" />
        </mxCell>
        <mxCell id="-n0_h4fopmZt9PzkOisp-193" value="" style="ellipse;whiteSpace=wrap;html=1;aspect=fixed;" vertex="1" parent="1">
          <mxGeometry x="10" y="1180" width="20" height="20" as="geometry" />
        </mxCell>
        <mxCell id="-n0_h4fopmZt9PzkOisp-194" value="" style="endArrow=none;html=1;rounded=0;entryX=0.5;entryY=1;entryDx=0;entryDy=0;exitX=1;exitY=0;exitDx=0;exitDy=0;" edge="1" target="-n0_h4fopmZt9PzkOisp-193" parent="1" source="-n0_h4fopmZt9PzkOisp-177">
          <mxGeometry width="50" height="50" relative="1" as="geometry">
            <mxPoint x="20" y="1215" as="sourcePoint" />
            <mxPoint x="20" y="1165" as="targetPoint" />
          </mxGeometry>
        </mxCell>
        <mxCell id="-n0_h4fopmZt9PzkOisp-195" value="Cantidad_necesaria" style="text;html=1;align=center;verticalAlign=middle;resizable=0;points=[];autosize=1;strokeColor=none;fillColor=none;" vertex="1" parent="1">
          <mxGeometry x="-15" y="1150" width="130" height="30" as="geometry" />
        </mxCell>
        <mxCell id="-n0_h4fopmZt9PzkOisp-197" value="Mueble" style="rounded=0;whiteSpace=wrap;html=1;" vertex="1" parent="1">
          <mxGeometry x="1030" y="980" width="120" height="60" as="geometry" />
        </mxCell>
        <mxCell id="-n0_h4fopmZt9PzkOisp-198" value="1,1" style="text;html=1;align=center;verticalAlign=middle;resizable=0;points=[];autosize=1;strokeColor=none;fillColor=none;" vertex="1" parent="1">
          <mxGeometry x="1150" y="985" width="40" height="30" as="geometry" />
        </mxCell>
        <mxCell id="-n0_h4fopmZt9PzkOisp-199" value="&lt;font size=&quot;1&quot;&gt;posee&lt;/font&gt;" style="rhombus;whiteSpace=wrap;html=1;" vertex="1" parent="1">
          <mxGeometry x="1065" y="1090" width="50" height="50" as="geometry" />
        </mxCell>
        <mxCell id="-n0_h4fopmZt9PzkOisp-200" value="" style="endArrow=none;html=1;rounded=0;entryX=0.5;entryY=1;entryDx=0;entryDy=0;exitX=0.5;exitY=0;exitDx=0;exitDy=0;" edge="1" parent="1" source="-n0_h4fopmZt9PzkOisp-199" target="-n0_h4fopmZt9PzkOisp-197">
          <mxGeometry width="50" height="50" relative="1" as="geometry">
            <mxPoint x="990" y="1135" as="sourcePoint" />
            <mxPoint x="1040" y="1085" as="targetPoint" />
          </mxGeometry>
        </mxCell>
        <mxCell id="-n0_h4fopmZt9PzkOisp-201" value="" style="endArrow=none;html=1;rounded=0;entryX=0.5;entryY=1;entryDx=0;entryDy=0;exitX=0.5;exitY=0;exitDx=0;exitDy=0;" edge="1" parent="1" source="-n0_h4fopmZt9PzkOisp-202" target="-n0_h4fopmZt9PzkOisp-199">
          <mxGeometry width="50" height="50" relative="1" as="geometry">
            <mxPoint x="1090" y="1205" as="sourcePoint" />
            <mxPoint x="1100" y="1205" as="targetPoint" />
          </mxGeometry>
        </mxCell>
        <mxCell id="-n0_h4fopmZt9PzkOisp-202" value="Material" style="rounded=0;whiteSpace=wrap;html=1;" vertex="1" parent="1">
          <mxGeometry x="1030" y="1220" width="120" height="60" as="geometry" />
        </mxCell>
        <mxCell id="-n0_h4fopmZt9PzkOisp-203" value="" style="ellipse;whiteSpace=wrap;html=1;aspect=fixed;rotation=-30;" vertex="1" parent="1">
          <mxGeometry x="1020" y="940" width="20" height="20" as="geometry" />
        </mxCell>
        <mxCell id="-n0_h4fopmZt9PzkOisp-204" value="" style="endArrow=none;html=1;rounded=0;entryX=0.5;entryY=1;entryDx=0;entryDy=0;exitX=0.198;exitY=0.01;exitDx=0;exitDy=0;exitPerimeter=0;" edge="1" parent="1" source="-n0_h4fopmZt9PzkOisp-197" target="-n0_h4fopmZt9PzkOisp-203">
          <mxGeometry width="50" height="50" relative="1" as="geometry">
            <mxPoint x="1055" y="985" as="sourcePoint" />
            <mxPoint x="1055" y="935" as="targetPoint" />
          </mxGeometry>
        </mxCell>
        <mxCell id="-n0_h4fopmZt9PzkOisp-205" value="" style="ellipse;whiteSpace=wrap;html=1;aspect=fixed;" vertex="1" parent="1">
          <mxGeometry x="1090" y="942.5" width="20" height="20" as="geometry" />
        </mxCell>
        <mxCell id="-n0_h4fopmZt9PzkOisp-206" value="" style="endArrow=none;html=1;rounded=0;entryX=0.5;entryY=1;entryDx=0;entryDy=0;exitX=0.568;exitY=-0.041;exitDx=0;exitDy=0;exitPerimeter=0;" edge="1" parent="1" source="-n0_h4fopmZt9PzkOisp-197" target="-n0_h4fopmZt9PzkOisp-205">
          <mxGeometry width="50" height="50" relative="1" as="geometry">
            <mxPoint x="1090" y="985" as="sourcePoint" />
            <mxPoint x="1090" y="935" as="targetPoint" />
          </mxGeometry>
        </mxCell>
        <mxCell id="-n0_h4fopmZt9PzkOisp-207" value="Horas-hombre" style="text;html=1;align=center;verticalAlign=middle;resizable=0;points=[];autosize=1;strokeColor=none;fillColor=none;" vertex="1" parent="1">
          <mxGeometry x="980" y="915" width="100" height="30" as="geometry" />
        </mxCell>
        <mxCell id="-n0_h4fopmZt9PzkOisp-208" value="Volumen" style="text;html=1;align=center;verticalAlign=middle;resizable=0;points=[];autosize=1;strokeColor=none;fillColor=none;" vertex="1" parent="1">
          <mxGeometry x="1080" y="915" width="70" height="30" as="geometry" />
        </mxCell>
        <mxCell id="-n0_h4fopmZt9PzkOisp-209" value="" style="ellipse;whiteSpace=wrap;html=1;aspect=fixed;fillColor=#000000;rotation=-90;" vertex="1" parent="1">
          <mxGeometry x="970" y="970.0000000000002" width="20" height="20" as="geometry" />
        </mxCell>
        <mxCell id="-n0_h4fopmZt9PzkOisp-210" value="" style="endArrow=none;html=1;rounded=0;entryX=0.5;entryY=1;entryDx=0;entryDy=0;" edge="1" parent="1" target="-n0_h4fopmZt9PzkOisp-209">
          <mxGeometry width="50" height="50" relative="1" as="geometry">
            <mxPoint x="1030" y="980" as="sourcePoint" />
            <mxPoint x="920" y="959.0000000000002" as="targetPoint" />
          </mxGeometry>
        </mxCell>
        <mxCell id="-n0_h4fopmZt9PzkOisp-211" value="#Mueble" style="text;html=1;align=center;verticalAlign=middle;resizable=0;points=[];autosize=1;strokeColor=none;fillColor=none;" vertex="1" parent="1">
          <mxGeometry x="910" y="965" width="70" height="30" as="geometry" />
        </mxCell>
        <mxCell id="-n0_h4fopmZt9PzkOisp-212" value="" style="ellipse;whiteSpace=wrap;html=1;aspect=fixed;fillColor=#000000;" vertex="1" parent="1">
          <mxGeometry x="980" y="1214" width="20" height="20" as="geometry" />
        </mxCell>
        <mxCell id="-n0_h4fopmZt9PzkOisp-213" value="" style="endArrow=none;html=1;rounded=0;entryX=1;entryY=0.5;entryDx=0;entryDy=0;" edge="1" parent="1" target="-n0_h4fopmZt9PzkOisp-212">
          <mxGeometry width="50" height="50" relative="1" as="geometry">
            <mxPoint x="1031" y="1224" as="sourcePoint" />
            <mxPoint x="1155" y="1204" as="targetPoint" />
          </mxGeometry>
        </mxCell>
        <mxCell id="-n0_h4fopmZt9PzkOisp-214" value="" style="ellipse;whiteSpace=wrap;html=1;aspect=fixed;" vertex="1" parent="1">
          <mxGeometry x="1020" y="1185" width="20" height="20" as="geometry" />
        </mxCell>
        <mxCell id="-n0_h4fopmZt9PzkOisp-215" value="" style="endArrow=none;html=1;rounded=0;entryX=0.5;entryY=1;entryDx=0;entryDy=0;exitX=0.25;exitY=0;exitDx=0;exitDy=0;" edge="1" parent="1" target="-n0_h4fopmZt9PzkOisp-214">
          <mxGeometry width="50" height="50" relative="1" as="geometry">
            <mxPoint x="1030" y="1220" as="sourcePoint" />
            <mxPoint x="1030" y="1170" as="targetPoint" />
          </mxGeometry>
        </mxCell>
        <mxCell id="-n0_h4fopmZt9PzkOisp-216" value="Stock" style="text;html=1;align=center;verticalAlign=middle;resizable=0;points=[];autosize=1;strokeColor=none;fillColor=none;" vertex="1" parent="1">
          <mxGeometry x="1000" y="1155" width="50" height="30" as="geometry" />
        </mxCell>
        <mxCell id="-n0_h4fopmZt9PzkOisp-217" value="Nombre" style="text;html=1;align=center;verticalAlign=middle;resizable=0;points=[];autosize=1;strokeColor=none;fillColor=none;" vertex="1" parent="1">
          <mxGeometry x="920" y="1209" width="70" height="30" as="geometry" />
        </mxCell>
        <mxCell id="-n0_h4fopmZt9PzkOisp-218" value="" style="ellipse;whiteSpace=wrap;html=1;aspect=fixed;" vertex="1" parent="1">
          <mxGeometry x="1140" y="1185" width="20" height="20" as="geometry" />
        </mxCell>
        <mxCell id="-n0_h4fopmZt9PzkOisp-219" value="" style="endArrow=none;html=1;rounded=0;entryX=0.5;entryY=1;entryDx=0;entryDy=0;exitX=1;exitY=0;exitDx=0;exitDy=0;" edge="1" parent="1" source="-n0_h4fopmZt9PzkOisp-202" target="-n0_h4fopmZt9PzkOisp-218">
          <mxGeometry width="50" height="50" relative="1" as="geometry">
            <mxPoint x="1150" y="1220" as="sourcePoint" />
            <mxPoint x="1150" y="1170" as="targetPoint" />
          </mxGeometry>
        </mxCell>
        <mxCell id="-n0_h4fopmZt9PzkOisp-220" value="Cantidad_necesaria" style="text;html=1;align=center;verticalAlign=middle;resizable=0;points=[];autosize=1;strokeColor=none;fillColor=none;" vertex="1" parent="1">
          <mxGeometry x="1085" y="1159" width="130" height="30" as="geometry" />
        </mxCell>
        <mxCell id="-n0_h4fopmZt9PzkOisp-221" value="1,N" style="text;html=1;align=center;verticalAlign=middle;resizable=0;points=[];autosize=1;strokeColor=none;fillColor=none;" vertex="1" parent="1">
          <mxGeometry x="-80" y="1189" width="40" height="30" as="geometry" />
        </mxCell>
        <mxCell id="-n0_h4fopmZt9PzkOisp-222" value="0,N" style="text;html=1;align=center;verticalAlign=middle;resizable=0;points=[];autosize=1;strokeColor=none;fillColor=none;" vertex="1" parent="1">
          <mxGeometry x="-80" y="1040" width="40" height="30" as="geometry" />
        </mxCell>
        <mxCell id="-n0_h4fopmZt9PzkOisp-223" value="0,N" style="text;html=1;align=center;verticalAlign=middle;resizable=0;points=[];autosize=1;strokeColor=none;fillColor=none;" vertex="1" parent="1">
          <mxGeometry x="1050" y="1035" width="40" height="30" as="geometry" />
        </mxCell>
        <mxCell id="-n0_h4fopmZt9PzkOisp-225" value="1,N" style="text;html=1;align=center;verticalAlign=middle;resizable=0;points=[];autosize=1;strokeColor=none;fillColor=none;" vertex="1" parent="1">
          <mxGeometry x="1050" y="1194" width="40" height="30" as="geometry" />
        </mxCell>
      </root>
    </mxGraphModel>
  </diagram>
</mxfile>
